<svg width="100%" viewBox="0 0 680 400">
  <rect x="240" y="60" width="200" height="200" rx="100" fill="#4F46E5"/>
  <rect x="240" y="160" width="200" height="100" rx="0" fill="#4F46E5"/>
  <rect x="240" y="220" width="200" height="40" rx="20" fill="#4F46E5"/>

  <ellipse cx="340" cy="160" rx="95" ry="100" fill="#4F46E5"/>
  <ellipse cx="295" cy="130" rx="55" ry="65" fill="#6366F1"/>
  <ellipse cx="385" cy="130" rx="55" ry="65" fill="#6366F1"/>
  <ellipse cx="340" cy="100" rx="40" ry="50" fill="#818CF8"/>

  <path d="M295 200 Q340 240 385 200" fill="none" stroke="#C7D2FE" stroke-width="3" stroke-linecap="round"/>
  <path d="M270 160 Q260 180 270 200" fill="none" stroke="#C7D2FE" stroke-width="2.5" stroke-linecap="round"/>
  <path d="M410 160 Q420 180 410 200" fill="none" stroke="#C7D2FE" stroke-width="2.5" stroke-linecap="round"/>
  <path d="M305 110 Q295 130 305 150" fill="none" stroke="#C7D2FE" stroke-width="2" stroke-linecap="round"/>
  <path d="M375 110 Q385 130 375 150" fill="none" stroke="#C7D2FE" stroke-width="2" stroke-linecap="round"/>

  <polygon points="355,80 340,115 352,115 325,155 345,155 318,200 365,160 342,160 362,125 348,125" fill="#FCD34D"/>

  <rect x="310" y="255" width="60" height="12" rx="6" fill="#4F46E5"/>
  <rect x="325" y="267" width="30" height="8" rx="4" fill="#6366F1"/>

  <text x="340" y="320" text-anchor="middle" font-family="Arial, sans-serif" font-weight="700" font-size="36" fill="#4F46E5">Brainstein</text>
  <text x="340" y="348" text-anchor="middle" font-family="Arial, sans-serif" font-size="14" fill="#6366F1">AI Smartboard Assistant</text>
</svg>